<svg id="svg" version="1.1" xmlns="http://www.w3.org/2000/svg" style="display: block;" viewBox="0 0 277 162"><path d="M0,0 L277,0 L277,162 L0,162 Z M151,64 L151,65 L148,65 L148,66 L146,66 L146,67 L144,67 L144,68 L143,68 L143,69 L142,69 L142,70 L141,70 L141,71 L140,71 L140,72 L139,72 L139,73 L138,73 L138,74 L137,74 L137,76 L136,76 L136,78 L135,78 L135,80 L134,80 L134,93 L135,93 L135,97 L136,97 L136,99 L137,99 L137,101 L138,101 L138,102 L139,102 L139,103 L140,103 L140,104 L141,104 L141,105 L142,105 L142,106 L143,106 L143,107 L144,107 L144,108 L146,108 L146,109 L148,109 L148,110 L150,110 L150,111 L158,111 L158,112 L159,112 L159,111 L166,111 L166,110 L169,110 L169,109 L171,109 L171,108 L172,108 L172,107 L174,107 L174,106 L175,106 L175,105 L176,105 L176,104 L177,104 L177,103 L178,103 L178,101 L179,101 L179,100 L180,100 L180,98 L181,98 L181,95 L182,95 L182,93 L183,93 L183,112 L188,112 L188,75 L190,75 L190,76 L192,76 L192,77 L193,77 L193,78 L195,78 L195,79 L196,79 L196,80 L198,80 L198,81 L199,81 L199,82 L201,82 L201,83 L202,83 L202,84 L204,84 L204,85 L205,85 L205,86 L207,86 L207,87 L209,87 L209,88 L211,88 L211,89 L212,89 L212,90 L214,90 L214,91 L216,91 L216,64 L211,64 L211,81 L209,81 L209,80 L207,80 L207,79 L206,79 L206,78 L204,78 L204,77 L203,77 L203,76 L201,76 L201,75 L200,75 L200,74 L198,74 L198,73 L197,73 L197,72 L195,72 L195,71 L194,71 L194,70 L192,70 L192,69 L191,69 L191,68 L188,68 L188,67 L187,67 L187,66 L186,66 L186,65 L185,65 L185,64 L183,64 L183,81 L182,81 L182,79 L181,79 L181,77 L180,77 L180,75 L179,75 L179,73 L178,73 L178,72 L177,72 L177,71 L176,71 L176,70 L175,70 L175,69 L173,69 L173,68 L172,68 L172,67 L170,67 L170,66 L168,66 L168,65 L167,65 L167,64 Z M64,72 L64,77 L70,77 L70,112 L75,112 L75,72 Z M64,64 L64,65 L119,65 L119,66 L123,66 L123,67 L124,67 L124,68 L125,68 L125,69 L126,69 L126,70 L127,70 L127,71 L128,71 L128,76 L127,76 L127,77 L122,77 L122,76 L120,76 L120,75 L119,75 L119,74 L117,74 L117,72 L94,72 L94,74 L84,74 L84,111 L86,111 L86,76 L94,76 L94,77 L115,77 L115,78 L116,78 L116,79 L118,79 L118,83 L117,83 L117,84 L116,84 L116,85 L94,85 L94,112 L99,112 L99,111 L100,111 L100,91 L103,91 L103,92 L102,92 L102,94 L101,94 L101,99 L102,99 L102,100 L103,100 L103,101 L104,101 L104,102 L105,102 L105,112 L110,112 L110,107 L111,107 L111,108 L112,108 L112,109 L113,109 L113,111 L118,111 L118,108 L117,108 L117,107 L116,107 L116,106 L115,106 L115,105 L114,105 L114,104 L113,104 L113,103 L112,103 L112,101 L111,101 L111,98 L112,98 L112,95 L118,95 L118,96 L120,96 L120,97 L121,97 L121,98 L122,98 L122,100 L123,100 L123,101 L124,101 L124,102 L125,102 L125,103 L126,103 L126,105 L127,105 L127,106 L128,106 L128,107 L129,107 L129,108 L130,108 L130,110 L131,110 L131,111 L133,111 L133,109 L132,109 L132,108 L131,108 L131,107 L130,107 L130,106 L129,106 L129,104 L128,104 L128,103 L127,103 L127,102 L126,102 L126,100 L125,100 L125,99 L124,99 L124,98 L123,98 L123,97 L122,97 L122,95 L124,95 L124,94 L126,94 L126,93 L127,93 L127,92 L128,92 L128,91 L129,91 L129,90 L130,90 L130,88 L131,88 L131,87 L132,87 L132,74 L131,74 L131,72 L130,72 L130,71 L129,71 L129,69 L128,69 L128,68 L127,68 L127,67 L126,67 L126,66 L124,66 L124,65 L122,65 L122,64 Z M224,64 L224,108 L222,108 L222,107 L220,107 L220,106 L219,106 L219,105 L217,105 L217,104 L216,104 L216,103 L214,103 L214,102 L213,102 L213,101 L212,101 L212,100 L210,100 L210,99 L209,99 L209,98 L207,98 L207,97 L206,97 L206,96 L204,96 L204,95 L203,95 L203,94 L201,94 L201,93 L200,93 L200,92 L198,92 L198,91 L196,91 L196,112 L198,112 L198,94 L200,94 L200,95 L201,95 L201,96 L203,96 L203,97 L204,97 L204,98 L206,98 L206,99 L207,99 L207,100 L209,100 L209,101 L210,101 L210,102 L212,102 L212,103 L213,103 L213,104 L215,104 L215,105 L216,105 L216,106 L218,106 L218,107 L219,107 L219,108 L221,108 L221,109 L222,109 L222,110 L224,110 L224,111 L225,111 L225,64 Z " transform="translate(0,0)" style="fill: #FCFDFD;"/><path d="M0,0 L11,0 L11,1 L14,1 L14,2 L16,2 L16,3 L18,3 L18,4 L19,4 L19,5 L21,5 L21,6 L22,6 L22,8 L23,8 L23,9 L24,9 L24,10 L25,10 L25,12 L26,12 L26,14 L27,14 L27,17 L28,17 L28,28 L27,28 L27,31 L26,31 L26,33 L25,33 L25,35 L24,35 L24,36 L23,36 L23,37 L22,37 L22,39 L21,39 L21,40 L19,40 L19,41 L18,41 L18,42 L17,42 L17,43 L15,43 L15,44 L12,44 L12,45 L-1,45 L-1,44 L-4,44 L-4,43 L-6,43 L-6,42 L-8,42 L-8,41 L-9,41 L-9,40 L-10,40 L-10,39 L-11,39 L-11,38 L-12,38 L-12,37 L-13,37 L-13,36 L-14,36 L-14,34 L-15,34 L-15,32 L-16,32 L-16,31 L-17,31 L-17,15 L-16,15 L-16,12 L-15,12 L-15,11 L-14,11 L-14,9 L-13,9 L-13,8 L-12,8 L-12,7 L-11,7 L-11,6 L-10,6 L-10,5 L-9,5 L-9,4 L-7,4 L-7,3 L-6,3 L-6,2 L-3,2 L-3,1 L0,1 Z M1,7 L1,8 L-1,8 L-1,9 L-3,9 L-3,10 L-4,10 L-4,11 L-5,11 L-5,12 L-6,12 L-6,13 L-7,13 L-7,15 L-8,15 L-8,17 L-9,17 L-9,28 L-8,28 L-8,30 L-7,30 L-7,31 L-6,31 L-6,33 L-5,33 L-5,34 L-4,34 L-4,35 L-3,35 L-3,36 L-1,36 L-1,37 L2,37 L2,38 L9,38 L9,37 L12,37 L12,36 L14,36 L14,35 L15,35 L15,34 L16,34 L16,33 L17,33 L17,31 L18,31 L18,29 L19,29 L19,26 L20,26 L20,17 L19,17 L19,15 L18,15 L18,13 L17,13 L17,12 L16,12 L16,11 L14,11 L14,10 L13,10 L13,9 L12,9 L12,8 L9,8 L9,7 Z " transform="translate(153,65)" style="fill: #F6F7F7;"/><path d="M0,0 L5,0 L5,27 L3,27 L3,26 L1,26 L1,25 L0,25 L0,24 L-2,24 L-2,23 L-4,23 L-4,22 L-6,22 L-6,21 L-7,21 L-7,20 L-9,20 L-9,19 L-10,19 L-10,18 L-12,18 L-12,17 L-13,17 L-13,16 L-15,16 L-15,15 L-16,15 L-16,14 L-18,14 L-18,13 L-19,13 L-19,12 L-21,12 L-21,10 L-24,10 L-24,47 L-27,47 L-27,1 L-25,1 L-25,2 L-24,2 L-24,3 L-23,3 L-23,4 L-20,4 L-20,5 L-19,5 L-19,6 L-17,6 L-17,7 L-16,7 L-16,8 L-14,8 L-14,9 L-13,9 L-13,10 L-11,10 L-11,11 L-10,11 L-10,12 L-8,12 L-8,13 L-7,13 L-7,14 L-5,14 L-5,15 L-4,15 L-4,16 L-2,16 L-2,17 L0,17 Z " transform="translate(211,64)" style="fill: #3E3E3E;"/><path d="M0,0 L8,0 L8,1 L11,1 L11,2 L12,2 L12,3 L13,3 L13,4 L15,4 L15,5 L16,5 L16,6 L17,6 L17,8 L18,8 L18,10 L19,10 L19,19 L18,19 L18,22 L17,22 L17,24 L16,24 L16,26 L15,26 L15,27 L14,27 L14,28 L13,28 L13,29 L11,29 L11,30 L8,30 L8,31 L1,31 L1,30 L-2,30 L-2,29 L-4,29 L-4,28 L-5,28 L-5,27 L-6,27 L-6,26 L-7,26 L-7,24 L-8,24 L-8,23 L-9,23 L-9,21 L-10,21 L-10,10 L-9,10 L-9,8 L-8,8 L-8,6 L-7,6 L-7,5 L-6,5 L-6,4 L-5,4 L-5,3 L-4,3 L-4,2 L-2,2 L-2,1 L0,1 Z M0,5 L0,6 L-2,6 L-2,7 L-3,7 L-3,9 L-4,9 L-4,11 L-5,11 L-5,20 L-4,20 L-4,22 L-3,22 L-3,23 L-2,23 L-2,24 L-1,24 L-1,25 L0,25 L0,26 L8,26 L8,25 L10,25 L10,24 L11,24 L11,23 L12,23 L12,22 L13,22 L13,20 L14,20 L14,11 L13,11 L13,9 L12,9 L12,8 L11,8 L11,7 L10,7 L10,6 L8,6 L8,5 Z " transform="translate(154,72)" style="fill: #434343;"/><path d="M0,0 L22,0 L22,1 L24,1 L24,2 L25,2 L25,3 L27,3 L27,12 L26,12 L26,13 L25,13 L25,15 L23,15 L23,16 L21,16 L21,17 L4,17 L4,39 L-1,39 L-1,12 L21,12 L21,11 L22,11 L22,10 L23,10 L23,6 L21,6 L21,5 L20,5 L20,4 L19,4 L19,3 L0,3 Z " transform="translate(95,73)" style="fill: #424242;"/><path d="M0,0 L8,0 L8,1 L10,1 L10,2 L11,2 L11,3 L12,3 L12,4 L13,4 L13,6 L14,6 L14,15 L13,15 L13,17 L12,17 L12,18 L11,18 L11,19 L10,19 L10,20 L8,20 L8,21 L0,21 L0,20 L-1,20 L-1,19 L-2,19 L-2,18 L-3,18 L-3,17 L-4,17 L-4,15 L-5,15 L-5,6 L-4,6 L-4,4 L-3,4 L-3,2 L-2,2 L-2,1 L0,1 Z " transform="translate(154,77)" style="fill: #F8F9F9;"/><path d="M0,0 L11,0 L11,40 L6,40 L6,5 L0,5 Z " transform="translate(64,72)" style="fill: #4B4C4C;"/><path d="M0,0 L1,0 L1,3 L2,3 L2,13 L1,13 L1,16 L0,16 L0,18 L-1,18 L-1,19 L-2,19 L-2,20 L-4,20 L-4,21 L-6,21 L-6,22 L-9,22 L-9,24 L-10,24 L-10,23 L-16,23 L-16,26 L-17,26 L-17,28 L-18,28 L-18,27 L-19,27 L-19,26 L-20,26 L-20,25 L-21,25 L-21,24 L-20,24 L-20,21 L-22,21 L-22,20 L-23,20 L-23,19 L-12,19 L-12,17 L-10,17 L-10,16 L-8,16 L-8,14 L-7,14 L-7,13 L-6,13 L-6,5 L-1,5 L-1,4 L0,4 Z " transform="translate(128,72)" style="fill: #F1F2F2;"/><path d="M0,0 L16,0 L16,1 L17,1 L17,2 L19,2 L19,3 L21,3 L21,4 L22,4 L22,5 L23,5 L23,6 L21,6 L21,5 L20,5 L20,4 L18,4 L18,3 L16,3 L16,2 L13,2 L13,1 L2,1 L2,2 L-1,2 L-1,3 L-4,3 L-4,4 L-5,4 L-5,5 L-7,5 L-7,6 L-8,6 L-8,7 L-9,7 L-9,8 L-10,8 L-10,9 L-11,9 L-11,10 L-12,10 L-12,12 L-13,12 L-13,13 L-14,13 L-14,16 L-15,16 L-15,32 L-14,32 L-14,33 L-13,33 L-13,35 L-12,35 L-12,37 L-11,37 L-11,38 L-10,38 L-10,39 L-9,39 L-9,40 L-8,40 L-8,41 L-7,41 L-7,42 L-6,42 L-6,43 L-4,43 L-4,44 L-2,44 L-2,45 L1,45 L1,46 L14,46 L14,45 L17,45 L17,44 L19,44 L19,43 L20,43 L20,42 L21,42 L21,41 L23,41 L23,40 L24,40 L24,38 L25,38 L25,37 L26,37 L26,36 L27,36 L27,34 L28,34 L28,32 L29,32 L29,30 L30,30 L30,29 L31,29 L31,31 L30,31 L30,34 L29,34 L29,36 L28,36 L28,37 L27,37 L27,39 L26,39 L26,40 L25,40 L25,41 L24,41 L24,42 L23,42 L23,43 L21,43 L21,44 L20,44 L20,45 L18,45 L18,46 L15,46 L15,47 L8,47 L8,48 L7,48 L7,47 L-1,47 L-1,46 L-3,46 L-3,45 L-5,45 L-5,44 L-7,44 L-7,43 L-8,43 L-8,42 L-9,42 L-9,41 L-10,41 L-10,40 L-11,40 L-11,39 L-12,39 L-12,38 L-13,38 L-13,37 L-14,37 L-14,35 L-15,35 L-15,33 L-16,33 L-16,29 L-17,29 L-17,16 L-16,16 L-16,14 L-15,14 L-15,12 L-14,12 L-14,10 L-13,10 L-13,9 L-12,9 L-12,8 L-11,8 L-11,7 L-10,7 L-10,6 L-9,6 L-9,5 L-8,5 L-8,4 L-7,4 L-7,3 L-5,3 L-5,2 L-3,2 L-3,1 L0,1 Z " transform="translate(151,64)" style="fill: #7E7E7E;"/><path d="M0,0 L58,0 L58,1 L60,1 L60,2 L62,2 L62,3 L63,3 L63,4 L64,4 L64,5 L65,5 L65,7 L66,7 L66,8 L67,8 L67,10 L68,10 L68,23 L67,23 L67,24 L66,24 L66,26 L65,26 L65,27 L64,27 L64,28 L63,28 L63,29 L62,29 L62,30 L60,30 L60,31 L58,31 L58,33 L59,33 L59,34 L60,34 L60,35 L61,35 L61,36 L62,36 L62,38 L63,38 L63,39 L64,39 L64,40 L65,40 L65,42 L66,42 L66,43 L67,43 L67,44 L68,44 L68,45 L69,45 L69,47 L67,47 L67,46 L66,46 L66,44 L65,44 L65,43 L64,43 L64,42 L63,42 L63,41 L62,41 L62,39 L61,39 L61,38 L60,38 L60,37 L59,37 L59,36 L58,36 L58,34 L57,34 L57,33 L56,33 L56,32 L55,32 L55,30 L58,30 L58,29 L60,29 L60,28 L62,28 L62,27 L63,27 L63,26 L64,26 L64,24 L65,24 L65,21 L66,21 L66,11 L65,11 L65,8 L64,8 L64,7 L63,7 L63,6 L62,6 L62,5 L61,5 L61,4 L60,4 L60,3 L59,3 L59,2 L55,2 L55,1 L0,1 Z " transform="translate(64,64)" style="fill: #808181;"/><path d="M0,0 L2,0 L2,1 L1,1 L1,47 L4,47 L4,10 L7,10 L7,11 L5,11 L5,48 L0,48 L0,29 L-2,29 L-2,18 L-3,18 L-3,15 L-4,15 L-4,13 L-5,13 L-5,11 L-6,11 L-6,10 L-7,10 L-7,9 L-8,9 L-8,7 L-9,7 L-9,5 L-8,5 L-8,6 L-7,6 L-7,7 L-6,7 L-6,8 L-5,8 L-5,9 L-4,9 L-4,11 L-3,11 L-3,13 L-2,13 L-2,15 L-1,15 L-1,17 L0,17 Z M-3,29 L-2,29 L-2,30 L-3,30 Z " transform="translate(183,64)" style="fill: #7E7E7E;"/><path d="M0,0 L1,0 L1,47 L0,47 L0,46 L-2,46 L-2,45 L-3,45 L-3,44 L-5,44 L-5,43 L-6,43 L-6,42 L-8,42 L-8,41 L-9,41 L-9,40 L-11,40 L-11,39 L-12,39 L-12,38 L-14,38 L-14,37 L-15,37 L-15,36 L-17,36 L-17,35 L-18,35 L-18,34 L-20,34 L-20,33 L-21,33 L-21,32 L-23,32 L-23,31 L-24,31 L-24,30 L-26,30 L-26,48 L-28,48 L-28,27 L-26,27 L-26,28 L-24,28 L-24,29 L-23,29 L-23,30 L-21,30 L-21,31 L-20,31 L-20,32 L-18,32 L-18,33 L-17,33 L-17,34 L-15,34 L-15,35 L-14,35 L-14,36 L-12,36 L-12,37 L-11,37 L-11,38 L-10,38 L-10,39 L-8,39 L-8,40 L-7,40 L-7,41 L-5,41 L-5,42 L-4,42 L-4,43 L-2,43 L-2,44 L0,44 Z " transform="translate(224,64)" style="fill: #747575;"/><path d="M0,0 L23,0 L23,1 L1,1 L1,4 L20,4 L20,5 L0,5 L0,4 L-8,4 L-8,39 L-10,39 L-10,2 L0,2 Z " transform="translate(94,72)" style="fill: #858585;"/><path d="M0,0 L17,0 L17,1 L6,1 L6,2 L7,2 L7,3 L9,3 L9,6 L7,6 L7,21 L11,21 L11,22 L6,22 L6,12 L5,12 L5,11 L4,11 L4,10 L3,10 L3,9 L2,9 L2,4 L3,4 L3,2 L4,2 L4,1 L1,1 L1,21 L0,21 Z " transform="translate(99,90)" style="fill: #D9DADA;"/><path d="M0,0 L1,0 L1,1 L2,1 L2,2 L3,2 L3,3 L4,3 L4,4 L5,4 L5,5 L6,5 L6,7 L7,7 L7,8 L8,8 L8,9 L9,9 L9,10 L10,10 L10,11 L11,11 L11,12 L12,12 L12,15 L7,15 L7,13 L6,13 L6,12 L5,12 L5,11 L4,11 L4,15 L0,15 Z " transform="translate(106,96)" style="fill: #3D3D3D;"/></svg>