<svg id="svg" version="1.1" xmlns="http://www.w3.org/2000/svg" style="display: block;" viewBox="0 0 292 189"><path d="M0,0 L292,0 L292,189 L0,189 Z " transform="translate(0,0)" style="fill: #FEFEFE;"/><path d="M0,0 L3,0 L3,1 L1,1 L1,2 L0,2 L0,3 L-1,3 L-1,4 L-2,4 L-2,5 L-3,5 L-3,6 L-4,6 L-4,8 L-5,8 L-5,9 L-6,9 L-6,11 L-7,11 L-7,12 L-8,12 L-8,14 L-9,14 L-9,16 L-10,16 L-10,19 L-11,19 L-11,23 L-12,23 L-12,27 L12,27 L12,28 L15,28 L15,29 L18,29 L18,31 L20,31 L20,32 L21,32 L21,34 L22,34 L22,37 L23,37 L23,39 L24,39 L24,38 L25,38 L25,37 L26,37 L26,36 L27,36 L27,35 L28,35 L28,34 L29,34 L29,33 L30,33 L30,32 L31,32 L31,31 L32,31 L32,30 L33,30 L33,29 L34,29 L34,28 L35,28 L35,27 L36,27 L36,26 L37,26 L37,25 L38,25 L38,24 L39,24 L39,23 L40,23 L40,22 L41,22 L41,21 L42,21 L42,20 L43,20 L43,19 L44,19 L44,18 L45,18 L45,17 L46,17 L46,16 L47,16 L47,15 L48,15 L48,14 L49,14 L49,13 L50,13 L50,12 L51,12 L51,11 L52,11 L52,10 L53,10 L53,9 L54,9 L54,8 L55,8 L55,7 L56,7 L56,6 L57,6 L57,5 L58,5 L58,4 L60,4 L60,5 L61,5 L61,7 L63,7 L63,8 L64,8 L64,9 L65,9 L65,10 L66,10 L66,11 L67,11 L67,12 L68,12 L68,13 L69,13 L69,14 L70,14 L70,15 L71,15 L71,16 L72,16 L72,19 L70,19 L70,20 L69,20 L69,21 L68,21 L68,22 L67,22 L67,23 L66,23 L66,24 L65,24 L65,25 L64,25 L64,26 L63,26 L63,27 L62,27 L62,28 L61,28 L61,29 L60,29 L60,30 L59,30 L59,31 L58,31 L58,32 L57,32 L57,33 L56,33 L56,34 L55,34 L55,35 L54,35 L54,37 L55,37 L55,38 L58,38 L58,39 L60,39 L60,41 L61,41 L61,42 L62,42 L62,44 L63,44 L63,47 L64,47 L64,60 L63,60 L63,64 L62,64 L62,66 L61,66 L61,67 L60,67 L60,68 L59,68 L59,69 L58,69 L58,70 L56,70 L56,71 L54,71 L54,72 L53,72 L53,73 L52,73 L52,74 L51,74 L51,75 L50,75 L50,76 L49,76 L49,77 L48,77 L48,78 L47,78 L47,79 L46,79 L46,81 L45,81 L45,85 L46,85 L46,86 L47,86 L47,87 L49,87 L49,88 L53,88 L53,87 L57,87 L57,86 L60,86 L60,85 L62,85 L62,84 L64,84 L64,83 L65,83 L65,82 L67,82 L67,81 L68,81 L68,80 L70,80 L70,79 L71,79 L71,78 L72,78 L72,77 L73,77 L73,76 L74,76 L74,75 L75,75 L75,73 L76,73 L76,72 L70,72 L70,37 L82,37 L82,40 L83,40 L83,39 L85,39 L85,38 L87,38 L87,37 L89,37 L89,36 L98,36 L98,37 L100,37 L100,38 L101,38 L101,39 L102,39 L102,40 L103,40 L103,42 L104,42 L104,72 L92,72 L92,47 L91,47 L91,46 L84,46 L84,47 L83,47 L83,71 L82,71 L82,72 L77,72 L77,74 L76,74 L76,76 L75,76 L75,77 L74,77 L74,79 L73,79 L73,80 L72,80 L72,82 L71,82 L71,83 L70,83 L70,85 L69,85 L69,86 L68,86 L68,87 L67,87 L67,88 L66,88 L66,89 L65,89 L65,90 L64,90 L64,91 L63,91 L63,92 L61,92 L61,93 L60,93 L60,94 L59,94 L59,95 L57,95 L57,96 L56,96 L56,97 L54,97 L54,98 L52,98 L52,99 L51,99 L51,100 L47,100 L47,101 L45,101 L45,102 L42,102 L42,103 L39,103 L39,104 L34,104 L34,105 L20,105 L20,104 L17,104 L17,103 L15,103 L15,102 L14,102 L14,101 L13,101 L13,100 L12,100 L12,99 L11,99 L11,97 L10,97 L10,89 L11,89 L11,87 L12,87 L12,86 L13,86 L13,85 L14,85 L14,84 L15,84 L15,83 L16,83 L16,82 L17,82 L17,81 L18,81 L18,80 L19,80 L19,79 L20,79 L20,78 L21,78 L21,77 L22,77 L22,76 L23,76 L23,75 L24,75 L24,74 L25,74 L25,73 L26,73 L26,72 L17,72 L17,73 L16,73 L16,74 L15,74 L15,75 L14,75 L14,76 L13,76 L13,77 L12,77 L12,78 L11,78 L11,79 L10,79 L10,80 L9,80 L9,81 L8,81 L8,82 L7,82 L7,84 L6,84 L6,86 L5,86 L5,96 L6,96 L6,99 L7,99 L7,100 L8,100 L8,101 L5,101 L5,100 L3,100 L3,99 L1,99 L1,98 L-1,98 L-1,97 L-3,97 L-3,96 L-4,96 L-4,95 L-6,95 L-6,94 L-7,94 L-7,93 L-8,93 L-8,92 L-9,92 L-9,91 L-10,91 L-10,90 L-12,90 L-12,89 L-13,89 L-13,88 L-14,88 L-14,86 L-15,86 L-15,85 L-16,85 L-16,84 L-17,84 L-17,83 L-18,83 L-18,82 L-19,82 L-19,80 L-20,80 L-20,78 L-21,78 L-21,77 L-22,77 L-22,75 L-23,75 L-23,73 L-24,73 L-24,71 L-25,71 L-25,69 L-23,69 L-23,70 L-22,70 L-22,71 L-19,71 L-19,72 L-13,72 L-13,66 L-21,66 L-21,65 L-23,65 L-23,64 L-25,64 L-25,62 L-26,62 L-26,61 L-27,61 L-27,58 L-28,58 L-28,71 L-41,71 L-41,38 L-51,38 L-51,27 L-24,27 L-24,25 L-23,25 L-23,24 L-22,24 L-22,22 L-21,22 L-21,20 L-20,20 L-20,18 L-19,18 L-19,17 L-18,17 L-18,16 L-17,16 L-17,15 L-16,15 L-16,13 L-15,13 L-15,12 L-14,12 L-14,11 L-13,11 L-13,10 L-12,10 L-12,9 L-11,9 L-11,8 L-10,8 L-10,7 L-8,7 L-8,6 L-7,6 L-7,5 L-6,5 L-6,4 L-4,4 L-4,3 L-3,3 L-3,2 L-1,2 L-1,1 L0,1 Z " transform="translate(123,56)" style="fill: #7EB58E;"/><path d="M0,0 L10,0 L10,1 L14,1 L14,2 L17,2 L17,3 L19,3 L19,5 L20,5 L20,6 L21,6 L21,8 L22,8 L22,11 L23,11 L23,24 L22,24 L22,28 L21,28 L21,30 L20,30 L20,31 L19,31 L19,32 L18,32 L18,33 L17,33 L17,34 L15,34 L15,35 L13,35 L13,36 L12,36 L12,37 L11,37 L11,38 L10,38 L10,39 L9,39 L9,40 L8,40 L8,41 L7,41 L7,42 L6,42 L6,43 L5,43 L5,45 L4,45 L4,49 L5,49 L5,50 L6,50 L6,51 L8,51 L8,52 L12,52 L12,51 L16,51 L16,50 L19,50 L19,49 L21,49 L21,48 L23,48 L23,47 L24,47 L24,46 L26,46 L26,45 L27,45 L27,44 L29,44 L29,43 L30,43 L30,42 L31,42 L31,41 L32,41 L32,40 L33,40 L33,39 L34,39 L34,37 L35,37 L35,36 L29,36 L29,1 L41,1 L41,4 L42,4 L42,3 L44,3 L44,2 L46,2 L46,1 L48,1 L48,0 L57,0 L57,1 L59,1 L59,2 L60,2 L60,3 L61,3 L61,4 L62,4 L62,6 L63,6 L63,36 L51,36 L51,11 L50,11 L50,10 L43,10 L43,11 L42,11 L42,35 L41,35 L41,36 L36,36 L36,38 L35,38 L35,40 L34,40 L34,41 L33,41 L33,43 L32,43 L32,44 L31,44 L31,46 L30,46 L30,47 L29,47 L29,49 L28,49 L28,50 L27,50 L27,51 L26,51 L26,52 L25,52 L25,53 L24,53 L24,54 L23,54 L23,55 L22,55 L22,56 L20,56 L20,57 L19,57 L19,58 L18,58 L18,59 L16,59 L16,60 L15,60 L15,61 L13,61 L13,62 L11,62 L11,63 L10,63 L10,64 L6,64 L6,65 L4,65 L4,66 L1,66 L1,67 L-2,67 L-2,68 L-7,68 L-7,69 L-21,69 L-21,68 L-24,68 L-24,67 L-26,67 L-26,66 L-27,66 L-27,65 L-28,65 L-28,64 L-29,64 L-29,63 L-30,63 L-30,61 L-31,61 L-31,53 L-30,53 L-30,51 L-29,51 L-29,50 L-28,50 L-28,49 L-27,49 L-27,48 L-26,48 L-26,47 L-25,47 L-25,46 L-24,46 L-24,45 L-23,45 L-23,44 L-22,44 L-22,43 L-21,43 L-21,42 L-20,42 L-20,41 L-19,41 L-19,40 L-18,40 L-18,39 L-17,39 L-17,38 L-16,38 L-16,37 L-15,37 L-15,36 L-14,36 L-14,35 L-13,35 L-13,34 L-12,34 L-12,33 L-11,33 L-11,32 L-10,32 L-10,27 L-11,27 L-11,24 L-12,24 L-12,11 L-11,11 L-11,8 L-10,8 L-10,7 L-9,7 L-9,5 L-8,5 L-8,4 L-7,4 L-7,3 L-5,3 L-5,2 L-4,2 L-4,1 L0,1 Z " transform="translate(164,92)" style="fill: #7FA3D2;"/><path d="M0,0 L24,0 L24,1 L27,1 L27,2 L30,2 L30,4 L32,4 L32,5 L33,5 L33,7 L34,7 L34,10 L35,10 L35,20 L34,20 L34,23 L33,23 L33,24 L32,24 L32,25 L31,25 L31,26 L30,26 L30,27 L28,27 L28,30 L29,30 L29,31 L30,31 L30,32 L31,32 L31,34 L32,34 L32,35 L33,35 L33,36 L34,36 L34,38 L35,38 L35,39 L36,39 L36,41 L37,41 L37,42 L38,42 L38,44 L24,44 L24,43 L23,43 L23,42 L22,42 L22,40 L21,40 L21,38 L20,38 L20,37 L19,37 L19,35 L18,35 L18,33 L17,33 L17,32 L16,32 L16,30 L15,30 L15,29 L13,29 L13,30 L12,30 L12,44 L0,44 Z " transform="translate(111,83)" style="fill: #000000;"/><path d="M0,0 L10,0 L10,1 L14,1 L14,2 L17,2 L17,3 L19,3 L19,5 L20,5 L20,6 L21,6 L21,8 L22,8 L22,11 L23,11 L23,24 L22,24 L22,28 L21,28 L21,30 L20,30 L20,31 L19,31 L19,32 L18,32 L18,33 L17,33 L17,34 L15,34 L15,35 L13,35 L13,36 L0,36 L0,35 L-4,35 L-4,34 L-5,34 L-5,33 L-7,33 L-7,32 L-8,32 L-8,31 L-9,31 L-9,29 L-10,29 L-10,27 L-11,27 L-11,24 L-12,24 L-12,11 L-11,11 L-11,8 L-10,8 L-10,7 L-9,7 L-9,5 L-8,5 L-8,4 L-7,4 L-7,3 L-5,3 L-5,2 L-4,2 L-4,1 L0,1 Z " transform="translate(164,92)" style="fill: #000000;"/><path d="M0,0 L2,0 L2,1 L3,1 L3,3 L5,3 L5,4 L6,4 L6,5 L7,5 L7,6 L8,6 L8,7 L9,7 L9,8 L10,8 L10,9 L11,9 L11,10 L12,10 L12,11 L13,11 L13,12 L14,12 L14,15 L12,15 L12,16 L11,16 L11,17 L10,17 L10,18 L9,18 L9,19 L8,19 L8,20 L7,20 L7,21 L6,21 L6,22 L5,22 L5,23 L4,23 L4,24 L3,24 L3,25 L2,25 L2,26 L1,26 L1,27 L0,27 L0,28 L-1,28 L-1,29 L-2,29 L-2,30 L-3,30 L-3,31 L-4,31 L-4,33 L-7,33 L-7,32 L-17,32 L-17,33 L-21,33 L-21,34 L-22,34 L-22,35 L-24,35 L-24,36 L-25,36 L-25,37 L-26,37 L-26,39 L-27,39 L-27,40 L-28,40 L-28,43 L-29,43 L-29,56 L-28,56 L-28,59 L-27,59 L-27,64 L-28,64 L-28,65 L-29,65 L-29,66 L-30,66 L-30,67 L-31,67 L-31,66 L-32,66 L-32,65 L-33,65 L-33,64 L-34,64 L-34,62 L-35,62 L-35,61 L-36,61 L-36,59 L-37,59 L-37,58 L-38,58 L-38,57 L-39,57 L-39,55 L-40,55 L-40,54 L-41,54 L-41,53 L-42,53 L-42,50 L-40,50 L-40,49 L-39,49 L-39,48 L-38,48 L-38,47 L-37,47 L-37,46 L-36,46 L-36,43 L-35,43 L-35,35 L-34,35 L-34,34 L-33,34 L-33,33 L-32,33 L-32,32 L-31,32 L-31,31 L-30,31 L-30,30 L-29,30 L-29,29 L-28,29 L-28,28 L-27,28 L-27,27 L-26,27 L-26,26 L-25,26 L-25,25 L-24,25 L-24,24 L-23,24 L-23,23 L-22,23 L-22,22 L-21,22 L-21,21 L-20,21 L-20,20 L-19,20 L-19,19 L-18,19 L-18,18 L-17,18 L-17,17 L-16,17 L-16,16 L-15,16 L-15,15 L-14,15 L-14,14 L-13,14 L-13,13 L-12,13 L-12,12 L-11,12 L-11,11 L-10,11 L-10,10 L-9,10 L-9,9 L-8,9 L-8,8 L-7,8 L-7,7 L-6,7 L-6,6 L-5,6 L-5,5 L-4,5 L-4,4 L-3,4 L-3,3 L-2,3 L-2,2 L-1,2 L-1,1 L0,1 Z " transform="translate(181,60)" style="fill: #B1E87A;"/><path d="M0,0 L9,0 L9,1 L11,1 L11,2 L12,2 L12,3 L13,3 L13,4 L14,4 L14,6 L15,6 L15,36 L3,36 L3,11 L2,11 L2,10 L-5,10 L-5,11 L-6,11 L-6,35 L-19,35 L-19,1 L-7,1 L-7,4 L-6,4 L-6,3 L-4,3 L-4,2 L-2,2 L-2,1 L0,1 Z " transform="translate(212,92)" style="fill: #000000;"/><path d="M0,0 L5,0 L5,1 L9,1 L9,2 L12,2 L12,3 L13,3 L13,4 L17,4 L17,5 L19,5 L19,6 L21,6 L21,7 L20,7 L20,8 L19,8 L19,9 L18,9 L18,10 L17,10 L17,11 L16,11 L16,12 L15,12 L15,13 L14,13 L14,14 L13,14 L13,15 L12,15 L12,16 L11,16 L11,17 L10,17 L10,18 L9,18 L9,19 L8,19 L8,20 L7,20 L7,21 L6,21 L6,22 L5,22 L5,23 L4,23 L4,24 L3,24 L3,25 L2,25 L2,26 L1,26 L1,27 L0,27 L0,28 L-1,28 L-1,29 L-2,29 L-2,30 L-3,30 L-3,31 L-4,31 L-4,32 L-5,32 L-5,33 L-6,33 L-6,34 L-7,34 L-7,35 L-8,35 L-8,36 L-9,36 L-9,37 L-10,37 L-10,38 L-12,38 L-12,37 L-14,37 L-14,35 L-17,35 L-17,34 L-20,34 L-20,33 L-32,33 L-32,32 L-31,32 L-31,31 L-30,31 L-30,30 L-29,30 L-29,29 L-28,29 L-28,28 L-27,28 L-27,27 L-26,27 L-26,26 L-25,26 L-25,25 L-24,25 L-24,24 L-23,24 L-23,23 L-22,23 L-22,22 L-21,22 L-21,21 L-20,21 L-20,20 L-19,20 L-19,19 L-18,19 L-18,18 L-17,18 L-17,17 L-16,17 L-16,16 L-15,16 L-15,15 L-14,15 L-14,14 L-13,14 L-13,13 L-12,13 L-12,12 L-11,12 L-11,11 L-10,11 L-10,10 L-9,10 L-9,9 L-8,9 L-8,8 L-7,8 L-7,7 L-6,7 L-6,6 L-5,6 L-5,5 L-4,5 L-4,4 L-3,4 L-3,3 L-2,3 L-2,2 L-1,2 L-1,1 L0,1 Z " transform="translate(155,50)" style="fill: #FAE876;"/><path d="M0,0 L33,0 L33,11 L23,11 L23,44 L10,44 L10,11 L0,11 Z " transform="translate(72,83)" style="fill: #000000;"/><path d="M0,0 L3,0 L3,1 L1,1 L1,2 L0,2 L0,3 L-1,3 L-1,4 L-2,4 L-2,5 L-3,5 L-3,6 L-4,6 L-4,8 L-5,8 L-5,9 L-6,9 L-6,11 L-7,11 L-7,12 L-8,12 L-8,14 L-9,14 L-9,16 L-10,16 L-10,19 L-11,19 L-11,23 L-12,23 L-12,71 L-13,71 L-13,66 L-21,66 L-21,65 L-23,65 L-23,64 L-25,64 L-25,62 L-26,62 L-26,61 L-27,61 L-27,58 L-28,58 L-28,38 L-18,38 L-18,27 L-24,27 L-24,25 L-23,25 L-23,24 L-22,24 L-22,22 L-21,22 L-21,20 L-20,20 L-20,18 L-19,18 L-19,17 L-18,17 L-18,16 L-17,16 L-17,15 L-16,15 L-16,13 L-15,13 L-15,12 L-14,12 L-14,11 L-13,11 L-13,10 L-12,10 L-12,9 L-11,9 L-11,8 L-10,8 L-10,7 L-8,7 L-8,6 L-7,6 L-7,5 L-6,5 L-6,4 L-4,4 L-4,3 L-3,3 L-3,2 L-1,2 L-1,1 L0,1 Z " transform="translate(123,56)" style="fill: #F1C17E;"/><path d="M0,0 L1,0 L1,2 L2,2 L2,4 L3,4 L3,6 L4,6 L4,9 L5,9 L5,12 L6,12 L6,14 L-5,14 L-5,34 L-6,34 L-6,35 L-7,35 L-7,36 L-8,36 L-8,37 L-10,37 L-10,38 L-11,38 L-11,40 L-12,40 L-12,37 L-11,37 L-11,24 L-12,24 L-12,21 L-13,21 L-13,19 L-14,19 L-14,18 L-15,18 L-15,15 L-14,15 L-14,14 L-13,14 L-13,13 L-12,13 L-12,12 L-11,12 L-11,11 L-10,11 L-10,10 L-9,10 L-9,9 L-8,9 L-8,8 L-7,8 L-7,7 L-6,7 L-6,6 L-5,6 L-5,5 L-4,5 L-4,4 L-3,4 L-3,3 L-2,3 L-2,2 L-1,2 L-1,1 L0,1 Z " transform="translate(198,79)" style="fill: #A2DDF4;"/><path d="M0,0 L6,0 L6,1 L7,1 L7,3 L8,3 L8,15 L7,15 L7,17 L5,17 L5,18 L0,18 L0,17 L-1,17 L-1,16 L-2,16 L-2,13 L-3,13 L-3,4 L-2,4 L-2,2 L-1,2 L-1,1 L0,1 Z " transform="translate(167,101)" style="fill: #92C4E6;"/><path d="M0,0 L8,0 L8,1 L9,1 L9,8 L8,8 L8,10 L0,10 Z " transform="translate(124,93)" style="fill: #F3CC79;"/><path d="M0,0 L6,0 L6,4 L5,4 L5,5 L4,5 L4,6 L3,6 L3,7 L2,7 L2,8 L1,8 L1,9 L0,9 L0,10 L-1,10 L-1,11 L-2,11 L-2,2 L-1,2 L-1,1 L0,1 Z " transform="translate(167,101)" style="fill: #FAFCFD;"/><path d="M0,0 L2,0 L2,2 L3,2 L3,7 L2,7 L2,8 L1,8 L1,9 L0,9 L0,10 L-1,10 L-1,9 L-2,9 L-2,8 L-3,8 L-3,7 L-4,7 L-4,5 L-3,5 L-3,4 L-2,4 L-2,3 L-1,3 L-1,2 L0,2 Z " transform="translate(151,117)" style="fill: #F9FAFB;"/><path d="M0,0 L1,0 L1,38 L0,38 Z " transform="translate(110,83)" style="fill: #B48C5D;"/><path d="M0,0 L1,0 L1,22 L12,22 L12,23 L0,23 Z " transform="translate(215,105)" style="fill: #5D5D5D;"/><path d="M0,0 L1,0 L1,34 L0,34 Z " transform="translate(193,93)" style="fill: #4C585D;"/><path d="M0,0 L1,0 L1,32 L0,32 Z " transform="translate(94,95)" style="fill: #3F3B37;"/><path d="M0,0 L1,0 L1,27 L0,27 Z " transform="translate(227,100)" style="fill: #808080;"/><path d="M0,0 L1,0 L1,1 L3,1 L3,2 L2,2 L2,13 L3,13 L3,15 L2,15 L2,16 L1,16 L1,18 L0,18 L0,15 L1,15 L1,2 L0,2 Z " transform="translate(186,101)" style="fill: #83B2CC;"/><path d="M0,0 L1,0 L1,23 L0,23 Z " transform="translate(205,104)" style="fill: #7E7E7E;"/><path d="M0,0 L1,0 L1,11 L11,11 L11,12 L0,12 Z " transform="translate(71,83)" style="fill: #DFDFDF;"/><path d="M0,0 L1,0 L1,10 L7,10 L7,11 L0,11 Z " transform="translate(123,93)" style="fill: #7A643D;"/><path d="M0,0 L13,0 L13,1 L0,1 Z " transform="translate(82,127)" style="fill: #A1A1A1;"/><path d="M0,0 L12,0 L12,1 L0,1 Z " transform="translate(215,127)" style="fill: #A1A1A1;"/><path d="M0,0 L12,0 L12,1 L0,1 Z " transform="translate(193,127)" style="fill: #9D9FA1;"/><path d="M0,0 L12,0 L12,1 L0,1 Z " transform="translate(111,127)" style="fill: #507257;"/><path d="M0,0 L2,0 L2,1 L3,1 L3,3 L2,3 L2,4 L1,4 L1,5 L0,5 Z " transform="translate(124,112)" style="fill: #F4F9F3;"/><path d="M0,0 L1,0 L1,11 L0,11 Z " transform="translate(105,83)" style="fill: #96764D;"/><path d="M0,0 L1,0 L1,11 L0,11 Z " transform="translate(71,83)" style="fill: #808080;"/><path d="M0,0 L10,0 L10,1 L0,1 Z " transform="translate(164,92)" style="fill: #3B4D29;"/><path d="M0,0 L1,0 L1,9 L0,9 Z " transform="translate(123,118)" style="fill: #435F45;"/><path d="M0,0 L1,0 L1,9 L0,9 Z " transform="translate(164,105)" style="fill: #787E82;"/><path d="M0,0 L9,0 L9,1 L0,1 Z " transform="translate(212,92)" style="fill: #4C4C4C;"/><path d="M0,0 L3,0 L3,6 L2,6 L2,1 L0,1 Z " transform="translate(108,121)" style="fill: #CDC5BD;"/><path d="M0,0 L7,0 L7,1 L0,1 Z " transform="translate(123,103)" style="fill: #453A24;"/><path d="M0,0 L6,0 L6,1 L0,1 Z " transform="translate(171,127)" style="fill: #151B22;"/><path d="M0,0 L6,0 L6,1 L0,1 Z " transform="translate(135,127)" style="fill: #577A55;"/><path d="M0,0 L6,0 L6,1 L0,1 Z " transform="translate(104,127)" style="fill: #C4DDCD;"/><path d="M0,0 L1,0 L1,5 L0,5 Z " transform="translate(152,103)" style="fill: #35482B;"/><path d="M0,0 L1,0 L1,5 L0,5 Z " transform="translate(133,95)" style="fill: #65593D;"/><path d="M0,0 L5,0 L5,1 L0,1 Z " transform="translate(124,92)" style="fill: #3D321F;"/><path d="M0,0 L5,0 L5,1 L0,1 Z " transform="translate(130,83)" style="fill: #262013;"/><path d="M0,0 L4,0 L4,1 L0,1 Z " transform="translate(164,127)" style="fill: #1C252F;"/><path d="M0,0 L1,0 L1,4 L0,4 Z " transform="translate(152,112)" style="fill: #2D3D26;"/><path d="M0,0 L2,0 L2,1 L1,1 L1,3 L0,3 Z " transform="translate(139,110)" style="fill: #95CD85;"/><path d="M0,0 L1,0 L1,4 L0,4 Z " transform="translate(174,104)" style="fill: #83B1CD;"/><path d="M0,0 L1,0 L1,4 L0,4 Z " transform="translate(145,93)" style="fill: #171C15;"/><path d="M0,0 L2,0 L2,1 L1,1 L1,2 L0,2 Z " transform="translate(98,125)" style="fill: #B0D0BD;"/><path d="M0,0 L1,0 L1,3 L0,3 Z " transform="translate(186,116)" style="fill: #405765;"/><path d="M0,0 L1,0 L1,3 L0,3 Z " transform="translate(174,113)" style="fill: #81ACCA;"/><path d="M0,0 L3,0 L3,1 L0,1 Z " transform="translate(170,101)" style="fill: #DFDFDF;"/><path d="M0,0 L1,0 L1,3 L0,3 Z " transform="translate(145,100)" style="fill: #34472B;"/><path d="M0,0 L1,0 L1,3 L0,3 Z " transform="translate(205,93)" style="fill: #808080;"/><path d="M0,0 L3,0 L3,1 L0,1 Z " transform="translate(212,92)" style="fill: #757575;"/><path d="M0,0 L1,0 L1,1 L2,1 L2,2 L0,2 Z " transform="translate(182,60)" style="fill: #DBFEA7;"/><path d="M0,0 L2,0 L2,1 L0,1 Z " transform="translate(160,159)" style="fill: #B5C9E5;"/><path d="M0,0 L2,0 L2,1 L0,1 Z " transform="translate(130,157)" style="fill: #D1E4DA;"/><path d="M0,0 L2,0 L2,1 L0,1 Z " transform="translate(170,156)" style="fill: #C7D8EC;"/><path d="M0,0 L1,0 L1,2 L0,2 Z " transform="translate(128,152)" style="fill: #9AC4AB;"/><path d="M0,0 L1,0 L1,2 L0,2 Z " transform="translate(133,145)" style="fill: #BBCAE4;"/><path d="M0,0 L2,0 L2,1 L0,1 Z " transform="translate(175,127)" style="fill: #4C657B;"/><path d="M0,0 L2,0 L2,1 L0,1 Z " transform="translate(162,127)" style="fill: #5D7A96;"/><path d="M0,0 L1,0 L1,2 L0,2 Z " transform="translate(149,126)" style="fill: #8C9299;"/><path d="M0,0 L2,0 L2,1 L0,1 Z " transform="translate(160,126)" style="fill: #11171C;"/><path d="M0,0 L1,0 L1,2 L0,2 Z " transform="translate(153,119)" style="fill: #DFDFDF;"/><path d="M0,0 L1,0 L1,2 L0,2 Z " transform="translate(144,119)" style="fill: #121911;"/><path d="M0,0 L1,0 L1,2 L0,2 Z " transform="translate(128,116)" style="fill: #7AAB77;"/><path d="M0,0 L1,0 L1,2 L0,2 Z " transform="translate(141,115)" style="fill: #121911;"/><path d="M0,0 L1,0 L1,2 L0,2 Z " transform="translate(164,114)" style="fill: #1B242A;"/><path d="M0,0 L2,0 L2,1 L0,1 Z " transform="translate(124,112)" style="fill: #808080;"/><path d="M0,0 L1,0 L1,2 L0,2 Z " transform="translate(164,109)" style="fill: #9F9F9F;"/><path d="M0,0 L1,0 L1,2 L0,2 Z " transform="translate(164,105)" style="fill: #606060;"/><path d="M0,0 L1,0 L1,2 L0,2 Z " transform="translate(174,104)" style="fill: #7199B0;"/><path d="M0,0 L1,0 L1,2 L0,2 Z " transform="translate(186,103)" style="fill: #1D272D;"/><path d="M0,0 L1,0 L1,2 L0,2 Z " transform="translate(152,103)" style="fill: #638650;"/><path d="M0,0 L1,0 L1,2 L0,2 Z " transform="translate(186,101)" style="fill: #4E6B79;"/><path d="M0,0 L1,0 L1,2 L0,2 Z " transform="translate(227,100)" style="fill: #AFAFAF;"/><path d="M0,0 L1,0 L1,2 L0,2 Z " transform="translate(153,100)" style="fill: #293620;"/><path d="M0,0 L1,0 L1,2 L0,2 Z " transform="translate(182,95)" style="fill: #141B1E;"/><path d="M0,0 L1,0 L1,2 L0,2 Z " transform="translate(133,95)" style="fill: #3D351E;"/><path d="M0,0 L1,0 L1,2 L0,2 Z " transform="translate(145,93)" style="fill: #4E4E4E;"/><path d="M0,0 L2,0 L2,1 L0,1 Z " transform="translate(178,93)" style="fill: #DFDFDF;"/><path d="M0,0 L2,0 L2,1 L0,1 Z " transform="translate(160,93)" style="fill: #40552F;"/><path d="M0,0 L2,0 L2,1 L0,1 Z " transform="translate(174,92)" style="fill: #79A054;"/><path d="M0,0 L1,0 L1,2 L0,2 Z " transform="translate(143,88)" style="fill: #1F1E1B;"/><path d="M0,0 L2,0 L2,1 L0,1 Z " transform="translate(141,86)" style="fill: #F5D975;"/><path d="M0,0 L2,0 L2,1 L0,1 Z " transform="translate(135,83)" style="fill: #D9C069;"/><path d="M0,0 L1,0 L1,1 L0,1 Z " transform="translate(165,158)" style="fill: #BED0E8;"/><path d="M0,0 L1,0 L1,1 L0,1 Z " transform="translate(168,157)" style="fill: #BFD2E9;"/><path d="M0,0 L1,0 L1,1 L0,1 Z " transform="translate(135,156)" style="fill: #CAD4EA;"/><path d="M0,0 L1,0 L1,1 L0,1 Z " transform="translate(173,155)" style="fill: #C1D4EA;"/><path d="M0,0 L1,0 L1,1 L0,1 Z " transform="translate(178,152)" style="fill: #C2D7EC;"/><path d="M0,0 L1,0 L1,1 L0,1 Z " transform="translate(128,152)" style="fill: #C5DDCF;"/><path d="M0,0 L1,0 L1,1 L0,1 Z " transform="translate(120,152)" style="fill: #AACCBB;"/><path d="M0,0 L1,0 L1,1 L0,1 Z " transform="translate(180,151)" style="fill: #C3D8ED;"/><path d="M0,0 L1,0 L1,1 L0,1 Z " transform="translate(110,144)" style="fill: #A8CBBB;"/><path d="M0,0 L1,0 L1,1 L0,1 Z " transform="translate(171,143)" style="fill: #A9C3E3;"/><path d="M0,0 L1,0 L1,1 L0,1 Z " transform="translate(134,143)" style="fill: #BBCBE5;"/><path d="M0,0 L1,0 L1,1 L0,1 Z " transform="translate(109,143)" style="fill: #B9D5C8;"/><path d="M0,0 L1,0 L1,1 L0,1 Z " transform="translate(108,142)" style="fill: #CADFD5;"/><path d="M0,0 L1,0 L1,1 L0,1 Z " transform="translate(182,141)" style="fill: #C8DAEE;"/><path d="M0,0 L1,0 L1,1 L0,1 Z " transform="translate(168,140)" style="fill: #C9D9ED;"/><path d="M0,0 L1,0 L1,1 L0,1 Z " transform="translate(105,138)" style="fill: #A8CCBB;"/><path d="M0,0 L1,0 L1,1 L0,1 Z " transform="translate(104,137)" style="fill: #B9D6C8;"/><path d="M0,0 L1,0 L1,1 L0,1 Z " transform="translate(136,132)" style="fill: #CBE3CB;"/><path d="M0,0 L1,0 L1,1 L0,1 Z " transform="translate(101,132)" style="fill: #A9CCBA;"/><path d="M0,0 L1,0 L1,1 L0,1 Z " transform="translate(137,131)" style="fill: #CBE5CB;"/><path d="M0,0 L1,0 L1,1 L0,1 Z " transform="translate(138,130)" style="fill: #CBE5CB;"/><path d="M0,0 L1,0 L1,1 L0,1 Z " transform="translate(139,129)" style="fill: #CCE6CB;"/><path d="M0,0 L1,0 L1,1 L0,1 Z " transform="translate(199,128)" style="fill: #97CDEC;"/><path d="M0,0 L1,0 L1,1 L0,1 Z " transform="translate(140,128)" style="fill: #CCE6CB;"/><path d="M0,0 L1,0 L1,1 L0,1 Z " transform="translate(179,126)" style="fill: #808080;"/><path d="M0,0 L1,0 L1,1 L0,1 Z " transform="translate(160,126)" style="fill: #445A6E;"/><path d="M0,0 L1,0 L1,1 L0,1 Z " transform="translate(149,126)" style="fill: #606060;"/><path d="M0,0 L1,0 L1,1 L0,1 Z " transform="translate(134,126)" style="fill: #557955;"/><path d="M0,0 L1,0 L1,1 L0,1 Z " transform="translate(101,126)" style="fill: #BAD6C5;"/><path d="M0,0 L1,0 L1,1 L0,1 Z " transform="translate(181,125)" style="fill: #BFBFBF;"/><path d="M0,0 L1,0 L1,1 L0,1 Z " transform="translate(158,125)" style="fill: #445A6E;"/><path d="M0,0 L1,0 L1,1 L0,1 Z " transform="translate(182,124)" style="fill: #808080;"/><path d="M0,0 L1,0 L1,1 L0,1 Z " transform="translate(133,124)" style="fill: #344934;"/><path d="M0,0 L1,0 L1,1 L0,1 Z " transform="translate(183,123)" style="fill: #9F9F9F;"/><path d="M0,0 L1,0 L1,1 L0,1 Z " transform="translate(147,123)" style="fill: #9F9F9F;"/><path d="M0,0 L1,0 L1,1 L0,1 Z " transform="translate(184,122)" style="fill: #BFBFBF;"/><path d="M0,0 L1,0 L1,1 L0,1 Z " transform="translate(155,122)" style="fill: #222D37;"/><path d="M0,0 L1,0 L1,1 L0,1 Z " transform="translate(146,122)" style="fill: #4E574C;"/><path d="M0,0 L1,0 L1,1 L0,1 Z " transform="translate(132,122)" style="fill: #233122;"/><path d="M0,0 L1,0 L1,1 L0,1 Z " transform="translate(154,121)" style="fill: #9F9F9F;"/><path d="M0,0 L1,0 L1,1 L0,1 Z " transform="translate(147,121)" style="fill: #D0E9CB;"/><path d="M0,0 L1,0 L1,1 L0,1 Z " transform="translate(131,121)" style="fill: #577A55;"/><path d="M0,0 L1,0 L1,1 L0,1 Z " transform="translate(185,120)" style="fill: #9F9F9F;"/><path d="M0,0 L1,0 L1,1 L0,1 Z " transform="translate(148,120)" style="fill: #D0E9CA;"/><path d="M0,0 L1,0 L1,1 L0,1 Z " transform="translate(145,120)" style="fill: #6E9864;"/><path d="M0,0 L1,0 L1,1 L0,1 Z " transform="translate(153,119)" style="fill: #9F9F9F;"/><path d="M0,0 L1,0 L1,1 L0,1 Z " transform="translate(149,119)" style="fill: #D1E9CA;"/><path d="M0,0 L1,0 L1,1 L0,1 Z " transform="translate(144,119)" style="fill: #4A6643;"/><path d="M0,0 L1,0 L1,1 L0,1 Z " transform="translate(130,119)" style="fill: #233122;"/><path d="M0,0 L1,0 L1,1 L0,1 Z " transform="translate(186,118)" style="fill: #829099;"/><path d="M0,0 L1,0 L1,1 L0,1 Z " transform="translate(172,118)" style="fill: #465D70;"/><path d="M0,0 L1,0 L1,1 L0,1 Z " transform="translate(167,118)" style="fill: #6A8EAA;"/><path d="M0,0 L1,0 L1,1 L0,1 Z " transform="translate(153,118)" style="fill: #404040;"/><path d="M0,0 L1,0 L1,1 L0,1 Z " transform="translate(150,118)" style="fill: #D1EACA;"/><path d="M0,0 L1,0 L1,1 L0,1 Z " transform="translate(143,118)" style="fill: #374C32;"/><path d="M0,0 L1,0 L1,1 L0,1 Z " transform="translate(173,117)" style="fill: #6A8EA9;"/><path d="M0,0 L1,0 L1,1 L0,1 Z " transform="translate(165,117)" style="fill: #354855;"/><path d="M0,0 L1,0 L1,1 L0,1 Z " transform="translate(143,117)" style="fill: #81B275;"/><path d="M0,0 L1,0 L1,1 L0,1 Z " transform="translate(165,116)" style="fill: #6A8EAA;"/><path d="M0,0 L1,0 L1,1 L0,1 Z " transform="translate(152,116)" style="fill: #9DB097;"/><path d="M0,0 L1,0 L1,1 L0,1 Z " transform="translate(142,116)" style="fill: #6E9864;"/><path d="M0,0 L1,0 L1,1 L0,1 Z " transform="translate(128,116)" style="fill: #466244;"/><path d="M0,0 L1,0 L1,1 L0,1 Z " transform="translate(174,115)" style="fill: #5C7B90;"/><path d="M0,0 L1,0 L1,1 L0,1 Z " transform="translate(152,115)" style="fill: #4D6942;"/><path d="M0,0 L1,0 L1,1 L0,1 Z " transform="translate(141,115)" style="fill: #4A6643;"/><path d="M0,0 L1,0 L1,1 L0,1 Z " transform="translate(140,114)" style="fill: #253321;"/><path d="M0,0 L1,0 L1,1 L0,1 Z " transform="translate(127,114)" style="fill: #233122;"/><path d="M0,0 L1,0 L1,1 L0,1 Z " transform="translate(140,113)" style="fill: #81B275;"/><path d="M0,0 L1,0 L1,1 L0,1 Z " transform="translate(126,113)" style="fill: #9F9F9F;"/><path d="M0,0 L1,0 L1,1 L0,1 Z " transform="translate(139,112)" style="fill: #5C7F54;"/><path d="M0,0 L1,0 L1,1 L0,1 Z " transform="translate(123,112)" style="fill: #3F3F3F;"/><path d="M0,0 L1,0 L1,1 L0,1 Z " transform="translate(138,111)" style="fill: #384D32;"/><path d="M0,0 L1,0 L1,1 L0,1 Z " transform="translate(139,110)" style="fill: #4B6743;"/><path d="M0,0 L1,0 L1,1 L0,1 Z " transform="translate(141,109)" style="fill: #5E8153;"/><path d="M0,0 L1,0 L1,1 L0,1 Z " transform="translate(142,108)" style="fill: #729C63;"/><path d="M0,0 L1,0 L1,1 L0,1 Z " transform="translate(143,107)" style="fill: #739D63;"/><path d="M0,0 L1,0 L1,1 L0,1 Z " transform="translate(144,106)" style="fill: #86B773;"/><path d="M0,0 L1,0 L1,1 L0,1 Z " transform="translate(144,105)" style="fill: #3A4F31;"/><path d="M0,0 L1,0 L1,1 L0,1 Z " transform="translate(174,104)" style="fill: #4C6676;"/><path d="M0,0 L1,0 L1,1 L0,1 Z " transform="translate(214,103)" style="fill: #BFBFBF;"/><path d="M0,0 L1,0 L1,1 L0,1 Z " transform="translate(174,103)" style="fill: #26333B;"/><path d="M0,0 L1,0 L1,1 L0,1 Z " transform="translate(165,103)" style="fill: #87967C;"/><path d="M0,0 L1,0 L1,1 L0,1 Z " transform="translate(145,103)" style="fill: #759F62;"/><path d="M0,0 L1,0 L1,1 L0,1 Z " transform="translate(213,102)" style="fill: #9F9F9F;"/><path d="M0,0 L1,0 L1,1 L0,1 Z " transform="translate(207,102)" style="fill: #808080;"/><path d="M0,0 L1,0 L1,1 L0,1 Z " transform="translate(173,102)" style="fill: #808080;"/><path d="M0,0 L1,0 L1,1 L0,1 Z " transform="translate(131,102)" style="fill: #808080;"/><path d="M0,0 L1,0 L1,1 L0,1 Z " transform="translate(186,101)" style="fill: #76A1B5;"/><path d="M0,0 L1,0 L1,1 L0,1 Z " transform="translate(172,101)" style="fill: #808080;"/><path d="M0,0 L1,0 L1,1 L0,1 Z " transform="translate(167,101)" style="fill: #A3B595;"/><path d="M0,0 L1,0 L1,1 L0,1 Z " transform="translate(132,101)" style="fill: #5F5F5F;"/><path d="M0,0 L1,0 L1,1 L0,1 Z " transform="translate(131,101)" style="fill: #FDF3DE;"/><path d="M0,0 L1,0 L1,1 L0,1 Z " transform="translate(153,100)" style="fill: #658850;"/><path d="M0,0 L1,0 L1,1 L0,1 Z " transform="translate(132,100)" style="fill: #FAF0DB;"/><path d="M0,0 L1,0 L1,1 L0,1 Z " transform="translate(185,99)" style="fill: #76A1B5;"/><path d="M0,0 L1,0 L1,1 L0,1 Z " transform="translate(154,98)" style="fill: #668950;"/><path d="M0,0 L1,0 L1,1 L0,1 Z " transform="translate(226,97)" style="fill: #9F9F9F;"/><path d="M0,0 L1,0 L1,1 L0,1 Z " transform="translate(183,96)" style="fill: #76A2B5;"/><path d="M0,0 L1,0 L1,1 L0,1 Z " transform="translate(156,96)" style="fill: #293720;"/><path d="M0,0 L1,0 L1,1 L0,1 Z " transform="translate(225,95)" style="fill: #BFBFBF;"/><path d="M0,0 L1,0 L1,1 L0,1 Z " transform="translate(206,95)" style="fill: #404040;"/><path d="M0,0 L1,0 L1,1 L0,1 Z " transform="translate(182,95)" style="fill: #4F6C79;"/><path d="M0,0 L1,0 L1,1 L0,1 Z " transform="translate(157,95)" style="fill: #2A3820;"/><path d="M0,0 L1,0 L1,1 L0,1 Z " transform="translate(224,94)" style="fill: #808080;"/><path d="M0,0 L1,0 L1,1 L0,1 Z " transform="translate(207,94)" style="fill: #808080;"/><path d="M0,0 L1,0 L1,1 L0,1 Z " transform="translate(180,94)" style="fill: #606060;"/><path d="M0,0 L1,0 L1,1 L0,1 Z " transform="translate(158,94)" style="fill: #7EA85E;"/><path d="M0,0 L1,0 L1,1 L0,1 Z " transform="translate(132,94)" style="fill: #99824B;"/><path d="M0,0 L1,0 L1,1 L0,1 Z " transform="translate(222,93)" style="fill: #606060;"/><path d="M0,0 L1,0 L1,1 L0,1 Z " transform="translate(209,93)" style="fill: #808080;"/><path d="M0,0 L1,0 L1,1 L0,1 Z " transform="translate(178,93)" style="fill: #808080;"/><path d="M0,0 L1,0 L1,1 L0,1 Z " transform="translate(160,93)" style="fill: #698C4F;"/><path d="M0,0 L1,0 L1,1 L0,1 Z " transform="translate(131,93)" style="fill: #7B6A3D;"/><path d="M0,0 L1,0 L1,1 L0,1 Z " transform="translate(220,92)" style="fill: #9F9F9F;"/><path d="M0,0 L1,0 L1,1 L0,1 Z " transform="translate(145,92)" style="fill: #B7B7B7;"/><path d="M0,0 L1,0 L1,1 L0,1 Z " transform="translate(144,90)" style="fill: #3E3E3E;"/><path d="M0,0 L1,0 L1,1 L0,1 Z " transform="translate(144,89)" style="fill: #B7B7B7;"/><path d="M0,0 L1,0 L1,1 L0,1 Z " transform="translate(143,88)" style="fill: #5B512B;"/><path d="M0,0 L1,0 L1,1 L0,1 Z " transform="translate(142,87)" style="fill: #5B512B;"/><path d="M0,0 L1,0 L1,1 L0,1 Z " transform="translate(141,86)" style="fill: #7C6D3C;"/><path d="M0,0 L1,0 L1,1 L0,1 Z " transform="translate(140,85)" style="fill: #7C6E3C;"/><path d="M0,0 L1,0 L1,1 L0,1 Z " transform="translate(138,84)" style="fill: #9B894B;"/><path d="M0,0 L1,0 L1,1 L0,1 Z " transform="translate(135,83)" style="fill: #9A844C;"/><path d="M0,0 L1,0 L1,1 L0,1 Z " transform="translate(134,83)" style="fill: #5D4F2E;"/></svg>